<?xml version="1.0" encoding="UTF-8"?><svg id="Layer_1" xmlns="http://www.w3.org/2000/svg" viewBox="0 0 256 256"><defs><style>.cls-1{fill:none;}.cls-1,.cls-2{stroke-width:0px;}.cls-2{fill:#81c285;}</style></defs><rect class="cls-1" width="256" height="256"/><path class="cls-2" d="m76.13,85.66l7.7-9.29c1.49-1.83,3.09-2.77,4.82-2.91,1.62-.16,3.25.52,4.76,1.94,4.48,4.27,9.03,8.35,13.61,12.43,6.15,5.5,12.49,11.18,18.43,17.15,1.91,1.94,1.96,5.1.08,7.07-1.99,2.09-5.29,2.2-7.38.29l-28.66-26.12c-10.5,12.54-21.05,25.05-31.57,37.56-8.82,10.47-17.62,20.94-26.36,31.36,3.64-1.54,7.22-3.11,9.24-4,4.92-2.2,7.07-.55,10.65,2.2l1.68,1.28c1.13.84,2.09,1.6,2.98,2.3,1.02.81,1.99,1.57,3.01,2.3,4.95-6.62,9.95-13.14,14.92-19.63,4.37-5.71,8.74-11.39,13.11-16.91,1.33-1.68,2.8-3.35,4.97-3.56,2.2-.18,3.9,1.1,5.5,2.49,4.48,3.85,8.95,7.7,13.53,11.65l3.64,3.14,43.4-50.28c1.62-1.88,3.17-3.46,5.37-3.53,2.07-.18,3.8,1.39,5.39,3.04,8.06,8.22,16.23,16.44,24.42,24.68,15.5,15.63,31.46,31.73,46.75,47.82,2.72-9.53,4.29-19.55,4.37-30.08.37-62.46-50.42-110.49-116.85-110.49S11.5,65.53,11.5,127.07c0,10.84,1.54,21.15,4.27,30.91,20.31-24,40.65-48.53,60.34-72.32h.03Z"/><path class="cls-2" d="m208.53,159.5l-13.4-5.24c-1.15-.44-1.36-.37-2.07.31-2.38,2.3-5,4.74-7.77,7.04-1.23,1.02-2.83,1.41-4.37,1.13-1.57-.29-2.91-1.26-3.66-2.64-1.2-2.17-.73-4.95,1.15-6.57l1.75-1.54c2.64-2.33,5.26-4.61,7.77-6.99s5.26-2.88,8.59-1.54c5.65,2.25,16.67,6.6,25.34,10l-25.29-25.21c-19.68-19.66-28.58-28.53-32.48-32.82-7.88,9.11-15.57,18.04-23.27,26.96l-19.97,23.14c-3.9,4.5-6.2,4.66-10.71.79l-16.75-14.42c-9.19,11.54-18.22,22.98-27.25,34.66-2.96,3.98-7.56,4.97-11.18,2.41-.6-.42-1.65-1.28-2.91-2.33-2.02-1.68-6.73-5.55-8.06-5.97-.97.24-8.48,3.53-13.43,5.68-4.53,1.99-8.4,3.69-10.44,4.37,16.96,40.52,57.46,67.67,107.27,67.74,50.21.05,91.35-27.41,108.47-68.14-8.64-3.51-18.04-7.17-27.33-10.81Z"/></svg>